<?xml version="1.0" standalone="yes"?>
<svg xmlns="http://www.w3.org/2000/svg" width="1013" height="1013">
<path style="fill:#ffffff; stroke:none;" d="M0 0L0 1013L1013 1013L1013 0L0 0z"/>
<path style="fill:#424242; stroke:none;" d="M395 45C383.727 40.987 369.24 33.934 357 36.754C341.765 40.264 334.73 61.5149 332 75C314.178 74.575 290.965 66.9493 281.651 88.0022C278.29 95.5986 280.267 112.382 274.825 117.825C269.526 123.123 253.368 121.063 246.002 124.129C226.245 132.352 230.191 156.793 233 174C218.699 177.789 196.698 184.1 193.598 201.001C191.405 212.96 198.322 226.877 202 238C190.556 242.914 174.761 252.26 170.993 265C167.104 278.147 178.586 295.827 187 305L187 306C172.647 317.442 154.98 334.739 166.358 354C170.529 361.062 181.921 367.903 183.278 376C184.607 383.934 173.545 395.18 171.278 403C165.371 423.378 186.626 436.081 202 444C195.637 461.875 185.524 484.195 205.012 497.666C208.703 500.218 212.818 502.036 217 503.615C221.929 505.477 226.785 507.184 232 508C231.512 520.918 227.322 534.501 232.918 546.977C239.745 562.197 262.708 562.94 277 563C277.03 577.651 277.667 601.387 294.01 607.608C306.238 612.263 319.445 608.177 332 608C338.897 654.213 343.94 702.924 345.91 750C346.909 773.854 342.865 797.148 346 821L425 821C425 787.191 408.224 745.477 426.02 714C437.396 693.88 455.779 689.476 477 686.646C500.237 683.547 520.738 683.26 544 687.277C561.622 690.319 576.673 694.114 587.162 710C608.419 742.194 591 785.46 591 821L670 821L670.136 746L678 609C697.571 611.022 711.804 607.865 717.385 587C718.966 581.09 717.735 569.629 722.171 565.166C728.142 559.16 744.908 561.334 752.989 557.699C771.511 549.364 766.024 523.959 764 508C777.931 505.82 799.494 498.614 802.885 483C805.715 469.972 799.015 456.038 795 444C807.212 439.094 823.677 428.987 826.304 415C828.713 402.172 818.254 385.998 810 377L810 376C824.503 364.439 841.799 347.244 830.354 328C826.346 321.26 813.724 312.924 813.455 305C812.949 290.072 832.852 280.251 825.092 263.001C821.716 255.497 814.673 250.182 808 245.768C804.413 243.395 798.775 241.028 797.187 236.691C794.387 229.043 802.929 216.115 803.666 208C805.544 187.325 781.618 178.364 765 175C765.271 163.526 769.112 151.343 765.845 140.002C760.487 121.403 735.968 120.224 720 120C719.924 101.848 718.115 76.9589 696 73.4866C688.319 72.2806 672.877 77.7377 666.913 72.8063C657.133 64.72 659.045 48.0873 646.962 40.1329C638.553 34.5966 625.976 37.0502 617 39.8485C613.024 41.0881 607.641 44.2742 603.404 42.7509C599.151 41.222 596.839 35.4764 594.477 31.9995C589.951 25.3346 584.634 18.2833 577 15.0326C566.915 10.7382 556.835 15.516 548 20.4981C544.245 22.6158 539.559 26.7893 535.009 26.5831C530.384 26.3736 526.802 21.5013 523.728 18.5813C517.685 12.8396 510.556 6.65045 502 5.41992C484.052 2.83868 478.194 21.1787 464 26.186C456.511 28.8278 444.254 17.4493 437 15.127C416.32 8.50623 402.48 28.0444 395 45z"/>
<path style="fill:#ffffff; stroke:none;" d="M529 33C516.683 16.8686 500.572 3.81403 482 18.7637C478.417 21.6483 470.458 27.287 470.993 32.6162C471.446 37.1302 478.578 40.1842 482 42.0557C499.385 51.5613 514.325 43.7311 529 33M400 47C410.996 51.8289 425.047 58.0135 437 53.0822C445.737 49.4777 452.462 41.5314 459 35C450.929 26.9525 432.878 14.8399 421.009 20.822C411.388 25.6718 405.065 37.9689 400 47M539 33C541.289 36.718 543.937 39.8817 547.034 42.9686C563.708 59.5834 576.959 53.3842 597 48C592.179 37.0731 582.659 19.5077 569 19.2513C558.195 19.0486 547.582 27.321 539 33M397 52C390.435 62.855 383.212 76.6995 371 82.0423C360.355 86.6996 346.016 83.7018 335 82C331.242 96.2147 325.928 113.313 311 119.252C303.516 122.229 288.982 120.482 283.175 125.595C277.529 130.566 279.251 148.589 275.536 155.995C268.642 169.738 252.216 173.264 239 178C241.099 192.468 244.837 208.623 234.504 220.94C229.045 227.446 214.141 232.622 211.482 240.451C208.004 250.692 219.91 264.255 217.299 276C215.495 284.111 209.317 291.044 203.81 296.944C200.994 299.962 196.181 303.472 196.458 308.089C197.166 319.847 210.296 327.942 209.713 341C209.359 348.921 205.381 356.307 201.444 363C199.472 366.352 195.614 370.637 196.088 374.803C197.294 385.411 213.944 393.569 217.045 405C220.393 417.343 209.191 428.384 211.263 439.798C212.158 444.728 218.296 447.479 222.001 450.042C228.406 454.471 235.057 459.839 238.516 467C244.001 478.356 235.276 493.265 240.267 503.206C243.627 509.898 259.804 511.819 265.98 516.177C279.469 525.695 280.936 542.77 281 558C295.622 559.362 312.453 559.43 322.377 572.019C328.157 579.351 329.77 597.143 338 601C339.453 574.528 345.267 549.499 352 524C422.764 588.155 536.033 559.278 613 522.695C629.022 515.079 642.785 505.486 657 495C664.169 519.769 673.538 542.809 675 569C688.36 562.383 699.989 559.352 715 559C715.844 548.081 716.116 535.698 721.827 526.005C729.259 513.39 744.604 508.416 758 505C756.402 490.651 751.48 474.53 761.599 462.035C767.274 455.026 782.623 449.718 785.561 441.549C788.363 433.756 779.954 420.37 779.346 412C778.278 397.327 792.821 384.577 803 376L803 375C795.092 364.24 784.237 349.18 788.04 335C790.151 327.127 802.912 314.069 800.729 306.272C797.533 294.853 782.564 288.875 779.701 276C777.221 264.846 789.252 249.825 785.066 240.446C781.406 232.246 767.429 227.401 761.642 219.99C752.232 207.943 756.822 191.837 758 178C728.796 170.279 716.062 155.228 716 125C701.053 122.616 685.285 124.039 674.783 110.933C669.459 104.288 667.814 88.1021 661.059 83.8245C652.259 78.2514 636.391 86.5883 626 82.0423C613.387 76.524 610.902 60.6589 600.15 54.8061C596.467 52.8018 591.584 55.3761 588 56.5013C580.547 58.8409 571.891 62.0199 564 60.3583C551.175 57.6578 545.647 42.2012 534 39.2859C525.313 37.1116 511.601 51.1093 502 52.5048C487.093 54.6715 477.984 39.3726 465 39.7203C455.818 39.9662 446.64 54.6136 438 58.4329C424.284 64.4958 409.981 56.3882 397 52M338 77C363.513 79.0767 380.651 77.2817 391 50C381.758 45.6824 368.371 39.9113 358.005 42.6832C345.379 46.0596 339.21 65.5109 338 77M606 50C610.669 62.3264 620.015 76.4849 634 78.4654C642.674 79.6937 651.302 77.0726 660 77C657.638 65.3195 652.4 45.7592 638.99 42.6553C628.062 40.126 616.033 46.4284 606 50z"/>
<path style="fill:#424242; stroke:none;" d="M528.702 78.6498C520.911 83.5677 521.24 98.9957 519.895 107C516.579 126.732 513.947 146.992 513.089 167C512.72 175.599 514.372 188.783 508.454 195.727C502.083 203.202 490.645 207.457 482 211.709C461.549 221.767 440.408 230.727 419 238.546C410.602 241.613 397.069 248.742 388 246.851C382.48 245.7 378.001 240.167 374 236.549C364.82 228.248 355.729 219.919 346 212.25C334.217 202.964 321.835 193.443 308 187.413C302.905 185.193 294.591 182.125 291.904 189.214C288.463 198.289 292.178 211.811 293.84 221C297.371 240.528 303.176 259.877 308.452 279C310.672 287.048 314.524 295.662 315.187 304C316.23 317.107 308.793 330.089 307.332 343C303.812 374.108 307.612 405.799 318.855 435C327.513 457.485 339.982 480.695 357.139 497.862C425.035 565.796 545.479 538.996 617.998 492.257C698.676 440.259 729.202 336.975 680.26 253C661.611 221.003 634.723 202.373 606.221 180.422C597.607 173.787 594.476 159.595 590.092 150C581.378 130.923 571.423 111.378 558.194 95.0008C552.913 88.4629 538.739 72.3145 528.702 78.6498z"/>
<path style="fill:#ffffff; stroke:none;" d="M282 119C291.805 117.711 303.078 117.98 311.977 113.096C322.55 107.294 327.324 92.2272 329 81C318.096 79.6174 303.167 75.755 293.217 82.4194C282.771 89.4153 282.621 107.753 282 119M668 81C674.097 107.87 687.645 118.611 715 119C714.582 107.717 713.992 88.2374 702.819 81.965C692.481 76.1614 679.017 80.1266 668 81M238 172C248.638 169.551 262.233 166.236 268.961 156.887C275.016 148.474 275.45 135.008 276 125C264.466 126.513 246.922 125.376 239.49 136.217C232.8 145.976 237.156 161.081 238 172M721 126C722 144.104 724.648 159.717 743 167.339C746.553 168.815 754.021 172.836 757.735 170.199C761.529 167.506 760.887 158.086 760.967 154C761.443 129.55 741.76 126.165 721 126M207 234C216.862 229.251 229.55 222.713 233.86 211.998C237.926 201.889 235.097 190.403 234 180C223.048 182.217 204.482 187.433 200.137 199.095C196.259 209.505 203.114 224.405 207 234M763 180C762.794 188.805 760.123 198.279 761.716 207C764.312 221.209 778.476 228.586 790 235C793.115 224.895 800.066 211.816 797.301 201.005C793.959 187.942 774.414 182.697 763 180M190 301C215.826 287.081 212.293 266.578 205 243C200.342 244.747 196.123 247.056 192 249.847C169.479 265.094 177.11 281.457 190 301M807 302C817.719 283.91 828.796 268.048 807.998 252.588C804.6 250.063 798.289 244.502 793.639 245.72C788.921 246.957 787.401 256.039 786.541 260C782.639 277.97 791.565 292.488 807 302M190 371C196.024 361.896 205.578 349.61 204.282 338C203.179 328.112 195.911 319.287 191 311C186.886 313.533 183.436 316.558 180.058 320.017C160.947 339.58 170.906 355.778 190 371M807 311C801.387 319.402 793.199 329.48 792.634 340C792.034 351.159 800.292 362.103 806 371C810.112 368.468 813.566 365.447 816.937 361.983C836.039 342.356 826.083 326.213 807 311M190 380C177.66 399.895 168.847 415.705 192 431.28C196.143 434.068 200.259 436.419 205 438C213.278 412.966 213.88 396.584 190 380M792 439C796.668 437.232 800.85 434.841 805 432.067C827.861 416.783 819.594 400.63 807 381C780.116 394.033 785.498 415.901 792 439M207 447C202.064 460.866 192.385 480.778 207.088 492.055C210.915 494.991 215.559 496.873 220 498.67C224.608 500.534 229.048 501.646 234 502C234.369 491.994 237.295 479.699 233.928 470C230.149 459.114 216.747 451.755 207 447M763 503C773.575 499.685 788.249 496.708 794.82 486.887C802.189 475.874 794.697 458.697 790 448C779.438 452.243 765.606 460.453 762.079 472C759.142 481.615 761.987 493.233 763 503M238 511C236.192 521.445 232.77 537.356 239.362 546.722C246.43 556.763 264.849 557.588 276 558C275.609 530.961 264.922 516.443 238 511M721 558C731.715 556.882 748.388 557.344 756.067 548.504C764.511 538.783 759.888 522.496 759 511C731.914 515.043 721.218 531.87 721 558M283 564C283.011 576.072 282.633 596.501 296.045 602.064C306.389 606.356 318.317 602.398 329 602C323.457 574.582 309.591 566.055 283 564M678 603C685.931 603.435 694.401 605.215 701.885 601.544C713.29 595.949 714.5 575.158 715 564C703.691 565.17 683.494 564.438 678.176 577.045C675.08 584.384 677.993 595.161 678 603M337.333 606.667L337.667 607.333L337.333 606.667z"/>
<path style="fill:#424242; stroke:none;" d="M690 858.452C648.281 862.247 605.862 861.161 564 862.033C492.675 863.518 421.392 865 350 865C323.593 865 297.344 865.23 271 866.873C266.325 867.164 246.563 866.176 247.449 873.992C248.326 881.718 268.458 880.83 274 880.972C302.744 881.706 331.259 881 360 881C458.676 881 557.321 876 656 876C679.733 876 703.358 875.445 727 873.358C733.197 872.812 746.928 874.33 749.612 866.735C752.235 859.314 741.342 859.127 737 858.916C721.419 858.159 705.592 857.033 690 858.452M866.259 896.269C858.23 900.115 858.034 925.817 865.409 930.373C869.904 933.149 876.956 932 882 932L917 932C922.096 932 929.047 933.083 933.591 930.276C940.963 925.722 940.771 900.116 932.741 896.269C928.179 894.084 921.911 895 917 895L883 895C877.818 895 871.07 893.965 866.259 896.269M691 898L692 905L655 905L655 916L743 916L743 905L712.221 904.455L703.235 897.322L691 898M809 896L809 903L795 903L795 935L842 935L842 903L829 903L829 896L821 896L821 903L816 903L816 896L809 896M758 900L758 910L767 910L767 919L759 919L759 985L766 985L766 978L784 978L784 984L792 984L792 919L783 919L783 910L792 910L792 900L758 900z"/>
<path style="fill:#ffffff; stroke:none;" d="M868 905L868 923C875.657 922.911 889.022 915.371 878.82 906.724C876.094 904.413 871.31 905.019 868 905M886 905L886 923L899 923L899 920L889 920L889 915L898 915L898 912L889 912L889 908L899 908L899 905L886 905M901 905L901 908L906 908L906 923L909 923L909 908L915 908L915 905L901 905M914 923L918 919L927 923L931 923C929.926 919.211 927.366 906.635 922.144 906.635C916.967 906.635 914.797 919.276 914 923z"/>
<path style="fill:#424242; stroke:none;" d="M871 908L871 912C874.639 911.815 876.609 911.52 878 908L871 908z"/>
<path style="fill:#ffffff; stroke:none;" d="M774 910L774 919L777 919L777 910L774 910M804 910L804 916L809 916L809 910L804 910M816 910L816 916L821 916L821 910L816 910M829 910L829 916L833 916L833 910L829 910z"/>
<path style="fill:#424242; stroke:none;" d="M922 910L920 916L924 916L922 910M199 944C210.153 936.362 212.304 922.294 198.977 915.197C189.078 909.926 174.771 909.721 164.012 912.09C160.21 912.927 156.395 914.323 154.904 918.25C153.016 923.222 154 929.775 154 935C154 946.226 152.347 958.927 154.349 969.984C155.14 974.357 157.908 977.403 162.035 978.962C172.994 983.102 191.819 982.406 201.915 976.258C216.197 967.559 211.119 951.132 199 944M413 915C413 931.082 407.753 958.579 416.069 972.815C421.012 981.277 446.669 986.642 447.06 972.078C447.257 964.744 437.795 967.263 434.269 963.183C430.515 958.838 432 950.318 432 945C437.609 944.97 457.311 938.304 444.379 931.175C440.909 929.263 435.817 930.002 432 930C431.925 916.939 425.776 913.027 413 915M871 915L871 920L879 916L871 915M664 921L664 930L734 930L734 921L664 921z"/>
<path style="fill:#ffffff; stroke:none;" d="M804 922L804 927L809 927L809 922L804 922M816 922L816 927L821 927L821 922L816 922M829 922L829 927L833 927L833 922L829 922z"/>
<path style="fill:#424242; stroke:none;" d="M239 960C247.295 959.528 267.287 959.218 272.178 951.44C284.09 932.494 250.015 921.561 237 926.456C209.823 936.679 218.359 978.793 246 980.84C252.58 981.328 261.048 981.606 266.651 977.529C269.902 975.164 272.237 969.535 268.723 966.283C265.378 963.188 258.873 966.264 255 966.643C248.18 967.31 243.497 964.956 239 960M315 945C307.128 945.83 297.048 945.668 290.12 949.86C279.851 956.074 280.622 970.182 290.104 976.78C299.149 983.073 317.501 982.74 326.877 977.18C333.624 973.179 332.997 965.871 333 959C333.003 951.853 334.405 942.777 331.38 936.102C325.871 923.947 308.294 923.563 297.006 925.419C291.677 926.296 283.045 931.695 287.843 938.122C290.395 941.541 295.634 939.39 299.001 938.809C305.632 937.666 311.613 938.852 315 945M456 928C458.68 943.207 463.104 966.238 476 976L476 977C472.142 980.18 465.588 984.692 464.787 990.016C463.156 1000.85 478.694 998.887 483.891 995.058C497.773 984.83 504.873 963.905 509.38 948C510.957 942.434 513.989 934.004 510.372 928.621C507.108 923.76 498.024 924.478 494.682 928.889C488.822 936.623 487.372 952.603 485 962C479.029 946.982 478.705 918.525 456 928M539 975C536.143 979.641 529.008 984.752 528.348 990.246C526.962 1001.8 543.585 998.547 548.663 994.265C557.674 986.666 562.675 973.683 566.892 963C570.35 954.24 576.28 941.774 574.554 932.139C573.375 925.56 564.01 922.876 559.142 927.453C553.11 933.124 550.603 953.816 549 962C544.536 952.196 544.28 936.764 536.904 928.768C532.52 924.015 521.107 923.911 520.956 932.139C520.73 944.506 528.867 967.799 539 975z"/>
<path style="fill:#ffffff; stroke:none;" d="M173 926L173 939C191.156 938.951 191.156 926.049 173 926z"/>
<path style="fill:#424242; stroke:none;" d="M381 926L381 966C362.667 967.606 366.46 951.16 365.951 938.003C365.636 929.866 359.989 924.092 351.348 926.556C343.686 928.741 346.967 948.817 347.005 955C347.144 977.672 368.049 985.831 387.995 979.221C403.161 974.194 400.004 957.878 400 945C399.998 939.933 400.969 932.906 397.003 928.978C393.059 925.074 386.062 926.005 381 926M586 926C586 936.329 585.847 946.672 586.02 957C586.389 978.982 619.808 991.841 635.022 974.293C641.333 967.014 638.078 949.052 637.992 940C637.957 936.211 638.095 931.78 635.182 928.904C631.401 925.169 624.853 926.006 620 926L620 942C620 947.987 621.647 957.07 618.825 962.541C615.955 968.104 608.648 966.32 605.911 961.678C600.582 952.638 610.433 929.404 596.913 926.484C593.389 925.723 589.582 926.004 586 926z"/>
<path style="fill:#ffffff; stroke:none;" d="M765 928L765 942L766 942L767 928L765 928M774 928L770 952L766 949L766 954L784 954L784 949C775.575 944.772 777 936.204 777 928L774 928M783 928L783 941L785 941L785 928L783 928z"/>
<path style="fill:#424242; stroke:none;" d="M664 935L664 945L734 945L734 935L664 935z"/>
<path style="fill:#ffffff; stroke:none;" d="M238 947L256 945C250.983 936.005 241.386 937.791 238 947z"/>
<path style="fill:#424242; stroke:none;" d="M794 938L794 946L844 946L844 938L794 938M797 949L797 968L804 974L793 974L793 982L845 982L845 974L832 974L834 968L840 968L840 949L797 949M664 950L664 985L676 985L676 980L722 980L722 985L734 985L734 950L664 950z"/>
<path style="fill:#ffffff; stroke:none;" d="M173 952L173 966C177.113 965.996 181.874 966.505 185.787 965.003C190.579 963.163 191.934 957.022 187.377 953.997C183.394 951.354 177.545 952.01 173 952M806 957L806 961L831 961L831 957L806 957M315 967L315 958C299.665 958.089 299.68 969.35 315 967M676 961L676 969L722 969L722 961L676 961M766 963L766 969L784 969L784 963L766 963M813 968L814 974C819.095 973.722 821.749 972.73 824 968L813 968z"/>
</svg>
